<svg data-v-6805eed4="" version="1.0" xmlns="http://www.w3.org/2000/svg"
  xmlns:xlink="http://www.w3.org/1999/xlink" width="100%" height="100%"
  viewBox="0 0 340.000000 250.000000" preserveAspectRatio="xMidYMid meet"
  color-interpolation-filters="sRGB" style="margin: auto;">
  <rect data-v-6805eed4="" x="0" y="0" width="100%" height="100%" fill="transparent" fill-opacity="1"
    class="background"></rect>
  <rect data-v-6805eed4="" x="0" y="0" width="100%" height="100%" fill="url(#watermark)"
    fill-opacity="1" class="watermarklayer"></rect>
  <g data-v-6805eed4="" fill="#333" class="iconlinesvg-g iconlinesvg"
    transform="translate(84.70462799072266,92.33802415711949)">
    <g class="tp-name" transform="translate(0,0)">
      <g transform="translate(0, 4.015216167117497)">
        <g data-gra="path-name" fill="#333" transform="scale(1)">
          <path
            d="M47.85-11.39L47.85-11.39Q47.85-8.98 47.22-7.21Q46.59-5.44 45.47-4.16Q44.34-2.88 42.76-2.09Q41.18-1.29 39.29-0.83Q37.40-0.36 35.24-0.18Q33.07 0 30.76 0L30.76 0L6.94 0L6.94-41.28L30.22-41.28Q31.99-41.28 33.77-41.12Q35.54-40.97 37.17-40.57Q38.81-40.16 40.21-39.44Q41.61-38.72 42.64-37.55Q43.68-36.38 44.26-34.73Q44.85-33.07 44.85-30.82L44.85-30.82Q44.85-28.81 44.35-27.34Q43.86-25.86 42.85-24.81Q41.85-23.76 40.28-23.09Q38.72-22.41 36.62-22.02L36.62-22.02Q39.62-21.81 41.76-21.00Q43.89-20.19 45.24-18.84Q46.59-17.48 47.22-15.61Q47.85-13.73 47.85-11.39ZM41.34-30.76L41.34-30.76Q41.34-31.63 41.21-32.50Q41.09-33.37 40.67-34.17Q40.25-34.97 39.46-35.66Q38.66-36.35 37.28-36.84Q35.90-37.34 33.87-37.63Q31.84-37.91 28.99-37.91L28.99-37.91L10.69-37.91L10.69-23.49L28.99-23.49Q33.04-23.49 35.48-24.08Q37.91-24.66 39.22-25.65Q40.52-26.65 40.93-27.97Q41.34-29.29 41.34-30.76ZM43.92-11.45L43.92-11.45Q43.92-13.79 43.11-15.44Q42.30-17.09 40.61-18.14Q38.93-19.20 36.29-19.69Q33.64-20.19 30.01-20.19L30.01-20.19L10.69-20.19L10.69-3.39L30.52-3.39Q34.28-3.39 36.84-3.83Q39.41-4.27 40.99-5.24Q42.57-6.22 43.24-7.75Q43.92-9.28 43.92-11.45Z"
            transform="translate(-6.939252336448598, 42.326435246996)"></path>
        </g>
      </g>
      <g transform="translate(44, 0)">
        <g>
          <g class="imagesvg">
            <g>
              <rect fill="#333" fill-opacity="0" stroke-width="2" x="0" y="0"
                width="59.085677454996336" height="51.167949023153554" class="image-rect"></rect>
              <svg filter="url(#colors2627212307)" x="0" y="0" width="59.085677454996336"
                height="51.167949023153554" filtersec="colorsf1397422527"
                class="image-svg-svg primary" style="overflow: visible;">
                <svg xmlns="http://www.w3.org/2000/svg"
                  viewBox="0.2900000214576721 0.3800000250339508 99.4000015258789 86.08000183105469">
                  <path fill="none"
                    d="M72.73 46.29L49.99 6.87 28.01 44.99c5.31-4.11 13.1-6.61 21.55-6.61 9.41 0 17.86 2.93 23.17 7.91z"></path>
                  <path fill="none"
                    d="M56.48 61.45c7.47-1.41 13.64-4.87 16.78-9.64-3.03-4.76-9.31-8.23-16.78-9.64 3.03 2.17 4.98 5.63 4.98 9.64-.1 4.01-2.05 7.47-4.98 9.64z"></path>
                  <circle fill="none" cx="49.55" cy="51.81" r="4.98"></circle>
                  <path fill="none"
                    d="M42.62 61.45c-3.03-2.17-4.98-5.63-4.98-9.64s1.95-7.47 4.98-9.64c-7.36 1.41-13.64 4.87-16.68 9.64 3.04 4.76 9.32 8.23 16.68 9.64z"></path>
                  <path fill="none"
                    d="M76.41 52.68c-4.33 7.58-14.83 12.56-26.85 12.56-11.69 0-21.87-4.66-26.42-11.91L5.92 83.21h88.14L76.41 52.68z"></path>
                  <path fill="#333333"
                    d="M49.99.38L.29 86.46h99.4L49.99.38zm-.44 46.45c2.82 0 4.98 2.27 4.98 4.98 0 2.82-2.27 4.98-4.98 4.98s-4.98-2.27-4.98-4.98c0-2.82 2.17-4.98 4.98-4.98zm6.93-4.66c7.47 1.41 13.64 4.87 16.78 9.64-3.03 4.76-9.31 8.23-16.78 9.64 3.03-2.17 4.98-5.63 4.98-9.64-.1-4.01-2.05-7.47-4.98-9.64zm-6.49-35.3l22.74 39.42c-5.31-4.98-13.75-7.9-23.17-7.9-8.55 0-16.24 2.49-21.55 6.61L49.99 6.87zm-7.37 35.3c-3.03 2.17-4.98 5.63-4.98 9.64s1.95 7.47 4.98 9.64c-7.36-1.41-13.64-4.87-16.68-9.64 3.04-4.77 9.32-8.23 16.68-9.64zM23.13 53.43c4.55 7.25 14.83 11.91 26.42 11.91 12.02 0 22.52-4.87 26.85-12.56l17.65 30.43H5.92l17.21-29.78z"></path>
                </svg>
              </svg>
              <defs>
                <filter id="colors2627212307">
                  <feColorMatrix type="matrix"
                    values="0 0 0 0 0.19921875  0 0 0 0 0.19921875  0 0 0 0 0.19921875  0 0 0 1 0"
                    class="icon-fecolormatrix"></feColorMatrix>
                </filter>
                <filter id="colorsf1397422527">
                  <feColorMatrix type="matrix"
                    values="0 0 0 0 0.99609375  0 0 0 0 0.99609375  0 0 0 0 0.99609375  0 0 0 1 0"
                    class="icon-fecolormatrix"></feColorMatrix>
                </filter>
                <filter id="colorsb4211129002">
                  <feColorMatrix type="matrix" values="0 0 0 0 0  0 0 0 0 0  0 0 0 0 0  0 0 0 1 0"
                    class="icon-fecolormatrix"></feColorMatrix>
                </filter>
              </defs>
            </g>
          </g>
        </g>
      </g>
      <g transform="translate(107, 4.015216167117497)">
        <g data-gra="path-name" fill="#333" transform="scale(1)">
          <path
            d="M37.52-38.09L37.52-38.09Q36.65-38.36 35.10-38.68Q33.55-38.99 31.12-38.99L31.12-38.99Q27.76-38.99 24.80-38.17Q21.84-37.34 19.30-35.93Q16.76-34.52 14.60-32.64Q12.44-30.76 10.69-28.66L10.69-28.66L10.69 0L6.94 0L6.94-41.28L10.69-41.28L10.69-32.86Q12.71-34.94 15.07-36.68Q17.42-38.42 20.04-39.67Q22.65-40.91 25.52-41.62Q28.39-42.33 31.45-42.33L31.45-42.33Q32.50-42.33 33.34-42.28Q34.19-42.24 34.89-42.16Q35.60-42.09 36.23-42.00Q36.86-41.91 37.52-41.79L37.52-41.79L37.52-38.09Z"
            transform="translate(-6.9392523364485985, 42.326435246996)"></path>
        </g>
      </g>
      <g transform="translate(141, 4.015216167117497)">
        <g data-gra="path-name" fill="#333" transform="scale(1)">
          <path
            d="M29.59-41.28L29.59-13.22Q29.59-9.79 28.39-7.22Q27.19-4.66 25.02-2.94Q22.86-1.23 19.86-0.38Q16.85 0.48 13.22 0.48L13.22 0.48Q10.96 0.48 9.07 0.29Q7.18 0.09 5.57-0.21Q3.97-0.51 2.60-0.86Q1.23-1.20 0-1.53L0-1.53L0-5.41Q1.26-4.93 2.61-4.48Q3.97-4.03 5.65-3.66Q7.33-3.30 9.42-3.09Q11.51-2.88 14.21-2.88L14.21-2.88Q16.64-2.88 18.76-3.56Q20.88-4.24 22.45-5.54Q24.03-6.85 24.93-8.73Q25.83-10.60 25.83-13.04L25.83-13.04L25.83-41.28L29.59-41.28Z"
            transform="translate(0, 42.326435246996)"></path>
        </g>
      </g>
    </g>
    <g data-gra="path-slogan" fill-rule="" class="tp-slogan" fill="#333"
      transform="translate(57.88462448120117,57.16794967651367)">
      <g transform="scale(1, 1)">
        <g transform="scale(1)">
          <path
            d="M1.10-1.72L0.50-1.02C0.85-0.66 1.26-0.38 1.73-0.17C2.20 0.04 2.71 0.14 3.26 0.14C3.68 0.14 4.05 0.09 4.38-0.03C4.71-0.15 4.99-0.31 5.22-0.51C5.45-0.71 5.63-0.95 5.75-1.22C5.88-1.50 5.94-1.79 5.94-2.10C5.94-2.39 5.90-2.64 5.81-2.86C5.73-3.08 5.62-3.27 5.47-3.44C5.33-3.60 5.16-3.75 4.96-3.87C4.76-3.99 4.54-4.10 4.32-4.20L3.20-4.68C3.04-4.74 2.89-4.81 2.74-4.89C2.58-4.97 2.44-5.05 2.32-5.15C2.19-5.25 2.09-5.37 2.01-5.50C1.93-5.63 1.90-5.80 1.90-5.99C1.90-6.35 2.03-6.63 2.30-6.83C2.57-7.04 2.92-7.14 3.36-7.14C3.73-7.14 4.06-7.07 4.35-6.94C4.64-6.81 4.91-6.63 5.15-6.40L5.69-7.04C5.41-7.33 5.07-7.57 4.67-7.75C4.27-7.93 3.83-8.02 3.36-8.02C3-8.02 2.67-7.96 2.37-7.86C2.07-7.76 1.81-7.61 1.59-7.42C1.37-7.23 1.20-7.01 1.07-6.76C0.95-6.50 0.89-6.22 0.89-5.93C0.89-5.64 0.94-5.39 1.03-5.17C1.13-4.95 1.25-4.76 1.40-4.60C1.56-4.44 1.73-4.30 1.92-4.19C2.11-4.08 2.30-3.98 2.48-3.90L3.61-3.41C3.80-3.32 3.97-3.24 4.13-3.16C4.29-3.08 4.43-2.99 4.54-2.89C4.66-2.79 4.75-2.67 4.82-2.53C4.89-2.39 4.92-2.22 4.92-2.02C4.92-1.63 4.78-1.32 4.49-1.09C4.20-0.85 3.80-0.73 3.28-0.73C2.87-0.73 2.47-0.82 2.09-1.00C1.71-1.18 1.38-1.42 1.10-1.72ZM8.68-3.05L8.68 0L9.68 0L9.68-3.05L12.05-7.87L11.00-7.87L10.00-5.65C9.88-5.36 9.75-5.08 9.61-4.80C9.48-4.52 9.34-4.23 9.20-3.94L9.16-3.94C9.02-4.23 8.89-4.52 8.77-4.80C8.65-5.08 8.53-5.36 8.40-5.65L7.38-7.87L6.31-7.87ZM12.49-3.94C12.49-3.30 12.58-2.72 12.75-2.21C12.92-1.71 13.16-1.28 13.47-0.93C13.78-0.58 14.14-0.32 14.56-0.13C14.98 0.05 15.44 0.14 15.94 0.14C16.44 0.14 16.89 0.04 17.28-0.16C17.67-0.36 18.02-0.64 18.34-1.00L17.77-1.61C17.52-1.33 17.25-1.11 16.96-0.96C16.68-0.81 16.34-0.73 15.96-0.73C15.58-0.73 15.25-0.81 14.95-0.96C14.65-1.11 14.39-1.33 14.18-1.61C13.98-1.89 13.81-2.23 13.70-2.62C13.58-3.02 13.52-3.46 13.52-3.96C13.52-4.45 13.58-4.89 13.70-5.28C13.82-5.67 13.99-6.01 14.21-6.28C14.42-6.56 14.68-6.77 14.99-6.92C15.29-7.07 15.63-7.14 16.01-7.14C16.34-7.14 16.64-7.07 16.89-6.94C17.14-6.81 17.37-6.63 17.58-6.41L18.14-7.04C17.91-7.30 17.62-7.53 17.26-7.72C16.90-7.92 16.48-8.02 16.00-8.02C15.49-8.02 15.03-7.92 14.60-7.73C14.17-7.55 13.80-7.28 13.49-6.92C13.18-6.57 12.93-6.14 12.76-5.64C12.58-5.14 12.49-4.57 12.49-3.94ZM19.80-7.87L19.80 0L20.80 0L20.80-3.71L24.46-3.71L24.46 0L25.46 0L25.46-7.87L24.46-7.87L24.46-4.57L20.80-4.57L20.80-7.87ZM31.68-7.03L31.68 0L32.69 0L32.69-7.03L35.06-7.03L35.06-7.87L29.30-7.87L29.30-7.03ZM36.48-7.87L36.48 0L41.14 0L41.14-0.85L37.48-0.85L37.48-3.71L40.46-3.71L40.46-4.56L37.48-4.56L37.48-7.03L41.02-7.03L41.02-7.87ZM42.35-3.94C42.35-3.30 42.43-2.72 42.61-2.21C42.78-1.71 43.02-1.28 43.33-0.93C43.63-0.58 44.00-0.32 44.42-0.13C44.84 0.05 45.30 0.14 45.79 0.14C46.30 0.14 46.74 0.04 47.14-0.16C47.53-0.36 47.88-0.64 48.19-1.00L47.63-1.61C47.37-1.33 47.10-1.11 46.82-0.96C46.53-0.81 46.20-0.73 45.82-0.73C45.44-0.73 45.10-0.81 44.80-0.96C44.50-1.11 44.25-1.33 44.04-1.61C43.83-1.89 43.67-2.23 43.55-2.62C43.44-3.02 43.38-3.46 43.38-3.96C43.38-4.45 43.44-4.89 43.56-5.28C43.68-5.67 43.85-6.01 44.06-6.28C44.28-6.56 44.54-6.77 44.84-6.92C45.15-7.07 45.49-7.14 45.86-7.14C46.20-7.14 46.49-7.07 46.75-6.94C47.00-6.81 47.23-6.63 47.44-6.41L48-7.04C47.77-7.30 47.47-7.53 47.11-7.72C46.75-7.92 46.33-8.02 45.85-8.02C45.35-8.02 44.88-7.92 44.45-7.73C44.03-7.55 43.66-7.28 43.34-6.92C43.03-6.57 42.79-6.14 42.61-5.64C42.44-5.14 42.35-4.57 42.35-3.94ZM49.66-7.87L49.66 0L50.65 0L50.65-3.71L54.31-3.71L54.31 0L55.32 0L55.32-7.87L54.31-7.87L54.31-4.57L50.65-4.57L50.65-7.87Z"
            transform="translate(-0.504, 8.016)"></path>
        </g>
      </g>
    </g>
  </g>
  <defs v-gra="od"></defs>
</svg>