<?xml version="1.0" encoding="utf-8"?>
<svg viewBox="173.7884 170.777 146.52 119.4849" width="146.52" height="119.485" xmlns="http://www.w3.org/2000/svg">
  <defs>
    <filter id="c6eea103-f7ad-4260-994b-7bb9e7734f08" filterUnits="userSpaceOnUse">
      <feColorMatrix type="matrix" values="0 0 0 0 0.99609375  0 0 0 0 0.99609375  0 0 0 0 0.99609375  0 0 0 1 0"/>
    </filter>
    <linearGradient x1="0" y1="1" x2="0" y2="0" id="KDkx6Z44u0IjIoCaQD--V">
      <stop offset="0" stop-color="#fbc2eb"/>
      <stop offset="1" stop-color="#a6c0ee"/>
    </linearGradient>
    <linearGradient x1="0" y1="1" x2="0" y2="0" id="3936d51a-6556-4ec0-934e-76e3ed101929">
      <stop offset="0" stop-color="#fbc2eb"/>
      <stop offset="1" stop-color="#a6c0ee"/>
    </linearGradient>
  </defs>
  <mask v-gra="im" id="3948de03-8105-4075-a6a5-d4261a70b371">
    <g mask="url(#16a44b96-8166-4ba0-837a-1fccaf90297b)" filter="url(#c6eea103-f7ad-4260-994b-7bb9e7734f08)">
      <g>
        <rect fill="#000000" fill-opacity="0" stroke-width="2" x="0" y="0" width="107.5" height="107.48495210670505" class="image-rect"/>
        <svg x="0" y="0" width="107.5" height="107.48495210670505" filtersec="colorsf6809454992" class="image-svg-svg primary" style="overflow: visible;">
          <svg fill="#000000" xmlns="http://www.w3.org/2000/svg" version="1.1" x="0px" y="0px" viewBox="0 0 90.01290893554688 90" enable-background="new 0 0 90 90">
            <g>
              <g>
                <path d="M89.1,42.9c-1.5-1.4-2.1-3-0.9-4.8c0.8-1.3,0.5-3-0.8-3.9c-1.8-1.2-1.9-2.7-1.1-4.4c0.7-1.5-0.1-3.3-1.6-3.9    c-1.7-0.6-2.7-1.7-2.4-3.7c0.3-1.5-0.7-3-2.3-3.3c-1.9-0.4-2.6-1.7-2.5-3.5c0-1.7-1.3-3-3-3c-1.8,0-3.1-0.6-3.5-2.5    c-0.3-1.5-1.8-2.5-3.3-2.3c-2,0.4-3-0.6-3.7-2.4c-0.6-1.6-2.3-2.3-3.9-1.6c-1.8,0.8-3.3,0.6-4.4-1.1c-0.8-1.3-2.6-1.7-3.9-0.8    C50,3,48.5,2.4,47.1,0.9c-1.1-1.2-3-1.2-4.1,0C41.5,2.4,40,3,38.1,1.8c-1.3-0.8-3-0.5-3.9,0.8c-1.2,1.8-2.7,1.9-4.4,1.1    C28.3,3,26.5,3.8,26,5.3c-0.6,1.7-1.7,2.7-3.7,2.4c-1.5-0.3-3,0.7-3.3,2.3c-0.4,1.9-1.7,2.5-3.5,2.5c-1.7,0-3,1.3-3,3    c0,1.8-0.6,3.1-2.5,3.5c-1.5,0.3-2.5,1.8-2.3,3.3c0.4,2-0.6,3-2.4,3.7c-1.6,0.6-2.3,2.3-1.6,3.9c0.8,1.8,0.6,3.3-1.1,4.4    c-1.3,0.8-1.7,2.6-0.8,3.9C3,40,2.4,41.5,0.9,42.9c-1.2,1.1-1.2,3,0,4.1c1.5,1.4,2.1,3,0.9,4.8c-0.8,1.3-0.5,3,0.8,3.9    c1.8,1.2,1.9,2.7,1.1,4.4C3,61.7,3.8,63.5,5.3,64c1.7,0.7,2.7,1.7,2.4,3.7c-0.3,1.5,0.7,3,2.3,3.3c1.9,0.4,2.5,1.7,2.5,3.5    c0,1.7,1.3,3,3,3c1.8,0,3.1,0.6,3.5,2.5c0.3,1.5,1.8,2.5,3.3,2.3c2-0.4,3,0.6,3.7,2.4c0.6,1.6,2.3,2.3,3.9,1.6    c1.8-0.8,3.3-0.6,4.4,1.1c0.8,1.3,2.6,1.7,3.9,0.8c1.9-1.2,3.4-0.6,4.8,0.9c1.1,1.2,3,1.2,4.1,0c1.4-1.5,3-2.1,4.8-0.9    c1.3,0.8,3,0.5,3.9-0.8c1.2-1.8,2.7-1.9,4.4-1.1c1.5,0.7,3.3-0.1,3.9-1.6c0.7-1.7,1.7-2.7,3.7-2.4c1.5,0.3,3-0.7,3.3-2.3    c0.4-1.9,1.7-2.6,3.5-2.5c1.7,0,3-1.3,3-3c0-1.8,0.6-3.1,2.5-3.5c1.5-0.3,2.5-1.8,2.3-3.3c-0.4-2,0.6-3,2.4-3.7    c1.6-0.6,2.3-2.3,1.6-3.9c-0.8-1.7-0.6-3.3,1.1-4.4c1.3-0.8,1.7-2.6,0.8-3.9c-1.2-1.9-0.6-3.4,0.9-4.8C90.3,46,90.3,44,89.1,42.9z     M45,82.2C24.5,82.2,7.8,65.5,7.8,45C7.8,24.5,24.5,7.8,45,7.8c20.5,0,37.2,16.6,37.2,37.2C82.2,65.5,65.5,82.2,45,82.2z"/>
              </g>
            </g>
          </svg>
        </svg>
        <defs>
          <filter id="colors5710538797">
            <feColorMatrix type="matrix" values="0 0 0 0 0  0 0 0 0 0  0 0 0 0 0  0 0 0 1 0" class="icon-fecolormatrix"/>
          </filter>
          <filter id="colorsf6809454992">
            <feColorMatrix type="matrix" values="0 0 0 0 0.99609375  0 0 0 0 0.99609375  0 0 0 0 0.99609375  0 0 0 1 0" class="icon-fecolormatrix"/>
          </filter>
        </defs>
      </g>
    </g>
  </mask>
  <mask id="16a44b96-8166-4ba0-837a-1fccaf90297b">
    <g fill="white">
      <g>
        <rect fill-opacity="1" stroke-width="2" x="0" y="0" width="107.5" height="107.48495210670505" class="image-rect"/>
        <svg x="0" y="0" width="107.5" height="107.48495210670505" class="image-svg-svg primary" style="overflow: visible;" filter="url(#colorsf6809454992)">
          <svg xmlns="http://www.w3.org/2000/svg" version="1.1" x="0px" y="0px" viewBox="0 0 90.01290893554688 90" enable-background="new 0 0 90 90">
            <g>
              <g>
                <path d="M89.1,42.9c-1.5-1.4-2.1-3-0.9-4.8c0.8-1.3,0.5-3-0.8-3.9c-1.8-1.2-1.9-2.7-1.1-4.4c0.7-1.5-0.1-3.3-1.6-3.9    c-1.7-0.6-2.7-1.7-2.4-3.7c0.3-1.5-0.7-3-2.3-3.3c-1.9-0.4-2.6-1.7-2.5-3.5c0-1.7-1.3-3-3-3c-1.8,0-3.1-0.6-3.5-2.5    c-0.3-1.5-1.8-2.5-3.3-2.3c-2,0.4-3-0.6-3.7-2.4c-0.6-1.6-2.3-2.3-3.9-1.6c-1.8,0.8-3.3,0.6-4.4-1.1c-0.8-1.3-2.6-1.7-3.9-0.8    C50,3,48.5,2.4,47.1,0.9c-1.1-1.2-3-1.2-4.1,0C41.5,2.4,40,3,38.1,1.8c-1.3-0.8-3-0.5-3.9,0.8c-1.2,1.8-2.7,1.9-4.4,1.1    C28.3,3,26.5,3.8,26,5.3c-0.6,1.7-1.7,2.7-3.7,2.4c-1.5-0.3-3,0.7-3.3,2.3c-0.4,1.9-1.7,2.5-3.5,2.5c-1.7,0-3,1.3-3,3    c0,1.8-0.6,3.1-2.5,3.5c-1.5,0.3-2.5,1.8-2.3,3.3c0.4,2-0.6,3-2.4,3.7c-1.6,0.6-2.3,2.3-1.6,3.9c0.8,1.8,0.6,3.3-1.1,4.4    c-1.3,0.8-1.7,2.6-0.8,3.9C3,40,2.4,41.5,0.9,42.9c-1.2,1.1-1.2,3,0,4.1c1.5,1.4,2.1,3,0.9,4.8c-0.8,1.3-0.5,3,0.8,3.9    c1.8,1.2,1.9,2.7,1.1,4.4C3,61.7,3.8,63.5,5.3,64c1.7,0.7,2.7,1.7,2.4,3.7c-0.3,1.5,0.7,3,2.3,3.3c1.9,0.4,2.5,1.7,2.5,3.5    c0,1.7,1.3,3,3,3c1.8,0,3.1,0.6,3.5,2.5c0.3,1.5,1.8,2.5,3.3,2.3c2-0.4,3,0.6,3.7,2.4c0.6,1.6,2.3,2.3,3.9,1.6    c1.8-0.8,3.3-0.6,4.4,1.1c0.8,1.3,2.6,1.7,3.9,0.8c1.9-1.2,3.4-0.6,4.8,0.9c1.1,1.2,3,1.2,4.1,0c1.4-1.5,3-2.1,4.8-0.9    c1.3,0.8,3,0.5,3.9-0.8c1.2-1.8,2.7-1.9,4.4-1.1c1.5,0.7,3.3-0.1,3.9-1.6c0.7-1.7,1.7-2.7,3.7-2.4c1.5,0.3,3-0.7,3.3-2.3    c0.4-1.9,1.7-2.6,3.5-2.5c1.7,0,3-1.3,3-3c0-1.8,0.6-3.1,2.5-3.5c1.5-0.3,2.5-1.8,2.3-3.3c-0.4-2,0.6-3,2.4-3.7    c1.6-0.6,2.3-2.3,1.6-3.9c-0.8-1.7-0.6-3.3,1.1-4.4c1.3-0.8,1.7-2.6,0.8-3.9c-1.2-1.9-0.6-3.4,0.9-4.8C90.3,46,90.3,44,89.1,42.9z     M45,82.2C24.5,82.2,7.8,65.5,7.8,45C7.8,24.5,24.5,7.8,45,7.8c20.5,0,37.2,16.6,37.2,37.2C82.2,65.5,65.5,82.2,45,82.2z"/>
              </g>
            </g>
          </svg>
        </svg>
      </g>
    </g>
    <g transform="translate(-19.51000213623047,32.442474365234375)">
      <rect fill="black" fill-opacity="1" x="-3.5" y="-3.5" width="153.52000427246094" height="49.599998474121094"/>
      <rect fill="black" fill-opacity="1" x="-3.5" y="-3.5"/>
    </g>
    <g transform="translate(-19.51000213623047,32.442474365234375)" fill="black">
      <g data-gra="path-name" fill-rule="" class="tp-name">
        <g transform="scale(1)">
          <g>
            <path d="M6.6 0Q6 0 5.64-0.39 5.28-0.78 5.28-1.38L5.28-1.38 5.28-40.56Q5.28-41.22 5.64-41.61 6-42 6.6-42L6.6-42 22.98-42Q29.34-42 32.58-38.94 35.82-35.88 35.82-30.96L35.82-30.96Q35.82-27.6 34.26-25.35 32.7-23.1 30.6-22.08L30.6-22.08Q33.18-20.82 34.92-18.18 36.66-15.54 36.66-12.12L36.66-12.12Q36.66-8.76 35.13-6 33.6-3.24 30.6-1.62 27.6 0 23.46 0L23.46 0 6.6 0ZM10.92-24.18L22.08-24.18Q25.98-24.18 28.02-25.95 30.06-27.72 30.06-30.9L30.06-30.9Q30.06-34.02 28.05-35.64 26.04-37.26 22.08-37.26L22.08-37.26 10.92-37.26 10.92-24.18ZM10.92-4.74L22.68-4.74Q26.52-4.74 28.71-6.81 30.9-8.88 30.9-12.12L30.9-12.12Q30.9-15.42 28.71-17.46 26.52-19.5 22.68-19.5L22.68-19.5 10.92-19.5 10.92-4.74ZM41.94 0Q41.46 0 41.1-0.36 40.74-0.72 40.74-1.2L40.74-1.2 40.86-1.86 55.74-40.68Q56.22-42 57.66-42L57.66-42 61.5-42Q62.94-42 63.42-40.68L63.42-40.68 78.3-1.86 78.42-1.2Q78.42-0.72 78.03-0.36 77.64 0 77.16 0L77.16 0 74.34 0Q73.74 0 73.35-0.33 72.96-0.66 72.84-1.02L72.84-1.02 69.48-9.66 49.62-9.66 46.32-1.02Q45.84 0 44.82 0L44.82 0 41.94 0ZM59.58-36.18L51.36-14.64 67.8-14.64 59.58-36.18ZM86.22 0Q85.62 0 85.26-0.39 84.9-0.78 84.9-1.38L84.9-1.38 84.9-40.56Q84.9-41.22 85.26-41.61 85.62-42 86.22-42L86.22-42 100.86-42Q107.7-42 111.57-38.79 115.44-35.58 115.44-29.46L115.44-29.46Q115.44-24.9 113.16-21.96 110.88-19.02 106.8-17.88L106.8-17.88 116.04-1.86Q116.22-1.5 116.22-1.2L116.22-1.2Q116.22-0.72 115.86-0.36 115.5 0 115.02 0L115.02 0 112.38 0Q111.48 0 110.97-0.42 110.46-0.84 110.04-1.62L110.04-1.62 101.22-16.98 90.54-16.98 90.54-1.38Q90.54-0.78 90.12-0.39 89.7 0 89.1 0L89.1 0 86.22 0ZM90.54-21.9L100.62-21.9Q109.68-21.9 109.68-29.52L109.68-29.52Q109.68-37.14 100.62-37.14L100.62-37.14 90.54-37.14 90.54-21.9ZM136.44 0.6Q129.9 0.6 125.61-2.61 121.32-5.82 121.08-12.06L121.08-12.06Q121.08-12.6 121.44-12.99 121.8-13.38 122.34-13.38L122.34-13.38 125.4-13.38Q126.72-13.38 126.9-12L126.9-12Q127.26-8.1 129.9-6.24 132.54-4.38 136.5-4.38L136.5-4.38Q141.06-4.38 143.55-7.38 146.04-10.38 146.04-15.48L146.04-15.48 146.04-36.96 124.62-36.96Q124.02-36.96 123.63-37.35 123.24-37.74 123.24-38.34L123.24-38.34 123.24-40.62Q123.24-41.22 123.63-41.61 124.02-42 124.62-42L124.62-42 150.36-42Q151.02-42 151.41-41.61 151.8-41.22 151.8-40.56L151.8-40.56 151.8-15.36Q151.8-10.56 149.97-6.96 148.14-3.36 144.66-1.38 141.18 0.6 136.44 0.6L136.44 0.6Z" transform="translate(-5.28000020980835, 42)"/>
          </g>
        </g>
      </g>
    </g>
  </mask>
  <g data-v-0dd9719b="" class="iconmbgsvg" transform="matrix(1, 0, 0, 1, 173.78842422050863, 176.7770259496126)">
    <g fill="#000000" hollow-target="textRect">
      <g transform="translate(19.51000213623047,0)" mask="url(#3948de03-8105-4075-a6a5-d4261a70b371)">
        <g>
          <rect fill="#000000" fill-opacity="0" stroke-width="2" x="0" y="0" width="107.5" height="107.48495210670505" class="image-rect"/>
          <svg filter="url(#colors5710538797)" x="0" y="0" width="107.5" height="107.48495210670505" filtersec="colorsf6809454992" class="image-svg-svg primary" style="overflow: visible;">
            <svg fill="#000000" xmlns="http://www.w3.org/2000/svg" version="1.1" x="0px" y="0px" viewBox="0 0 90.01290893554688 90" enable-background="new 0 0 90 90">
              <g>
                <g>
                  <path d="M89.1,42.9c-1.5-1.4-2.1-3-0.9-4.8c0.8-1.3,0.5-3-0.8-3.9c-1.8-1.2-1.9-2.7-1.1-4.4c0.7-1.5-0.1-3.3-1.6-3.9    c-1.7-0.6-2.7-1.7-2.4-3.7c0.3-1.5-0.7-3-2.3-3.3c-1.9-0.4-2.6-1.7-2.5-3.5c0-1.7-1.3-3-3-3c-1.8,0-3.1-0.6-3.5-2.5    c-0.3-1.5-1.8-2.5-3.3-2.3c-2,0.4-3-0.6-3.7-2.4c-0.6-1.6-2.3-2.3-3.9-1.6c-1.8,0.8-3.3,0.6-4.4-1.1c-0.8-1.3-2.6-1.7-3.9-0.8    C50,3,48.5,2.4,47.1,0.9c-1.1-1.2-3-1.2-4.1,0C41.5,2.4,40,3,38.1,1.8c-1.3-0.8-3-0.5-3.9,0.8c-1.2,1.8-2.7,1.9-4.4,1.1    C28.3,3,26.5,3.8,26,5.3c-0.6,1.7-1.7,2.7-3.7,2.4c-1.5-0.3-3,0.7-3.3,2.3c-0.4,1.9-1.7,2.5-3.5,2.5c-1.7,0-3,1.3-3,3    c0,1.8-0.6,3.1-2.5,3.5c-1.5,0.3-2.5,1.8-2.3,3.3c0.4,2-0.6,3-2.4,3.7c-1.6,0.6-2.3,2.3-1.6,3.9c0.8,1.8,0.6,3.3-1.1,4.4    c-1.3,0.8-1.7,2.6-0.8,3.9C3,40,2.4,41.5,0.9,42.9c-1.2,1.1-1.2,3,0,4.1c1.5,1.4,2.1,3,0.9,4.8c-0.8,1.3-0.5,3,0.8,3.9    c1.8,1.2,1.9,2.7,1.1,4.4C3,61.7,3.8,63.5,5.3,64c1.7,0.7,2.7,1.7,2.4,3.7c-0.3,1.5,0.7,3,2.3,3.3c1.9,0.4,2.5,1.7,2.5,3.5    c0,1.7,1.3,3,3,3c1.8,0,3.1,0.6,3.5,2.5c0.3,1.5,1.8,2.5,3.3,2.3c2-0.4,3,0.6,3.7,2.4c0.6,1.6,2.3,2.3,3.9,1.6    c1.8-0.8,3.3-0.6,4.4,1.1c0.8,1.3,2.6,1.7,3.9,0.8c1.9-1.2,3.4-0.6,4.8,0.9c1.1,1.2,3,1.2,4.1,0c1.4-1.5,3-2.1,4.8-0.9    c1.3,0.8,3,0.5,3.9-0.8c1.2-1.8,2.7-1.9,4.4-1.1c1.5,0.7,3.3-0.1,3.9-1.6c0.7-1.7,1.7-2.7,3.7-2.4c1.5,0.3,3-0.7,3.3-2.3    c0.4-1.9,1.7-2.6,3.5-2.5c1.7,0,3-1.3,3-3c0-1.8,0.6-3.1,2.5-3.5c1.5-0.3,2.5-1.8,2.3-3.3c-0.4-2,0.6-3,2.4-3.7    c1.6-0.6,2.3-2.3,1.6-3.9c-0.8-1.7-0.6-3.3,1.1-4.4c1.3-0.8,1.7-2.6,0.8-3.9c-1.2-1.9-0.6-3.4,0.9-4.8C90.3,46,90.3,44,89.1,42.9z     M45,82.2C24.5,82.2,7.8,65.5,7.8,45C7.8,24.5,24.5,7.8,45,7.8c20.5,0,37.2,16.6,37.2,37.2C82.2,65.5,65.5,82.2,45,82.2z"/>
                </g>
              </g>
            </svg>
          </svg>
          <defs>
            <filter id="colors5710538797">
              <feColorMatrix type="matrix" values="0 0 0 0 0  0 0 0 0 0  0 0 0 0 0  0 0 0 1 0" class="icon-fecolormatrix"/>
            </filter>
            <filter id="colorsf6809454992">
              <feColorMatrix type="matrix" values="0 0 0 0 0.99609375  0 0 0 0 0.99609375  0 0 0 0 0.99609375  0 0 0 1 0" class="icon-fecolormatrix"/>
            </filter>
          </defs>
        </g>
        <rect v-gra="id" width="119.5" height="119.48494720458984" transform="translate(-6, -6)" style="pointer-events:none;" fill="url(#KDkx6Z44u0IjIoCaQD--V)"/>
      </g>
      <g transform="translate(0,32.442474365234375)">
        <g data-gra="path-name" fill-rule="" class="tp-name" fill="url(#3936d51a-6556-4ec0-934e-76e3ed101929)">
          <g transform="scale(1)">
            <g>
              <path d="M6.6 0Q6 0 5.64-0.39 5.28-0.78 5.28-1.38L5.28-1.38 5.28-40.56Q5.28-41.22 5.64-41.61 6-42 6.6-42L6.6-42 22.98-42Q29.34-42 32.58-38.94 35.82-35.88 35.82-30.96L35.82-30.96Q35.82-27.6 34.26-25.35 32.7-23.1 30.6-22.08L30.6-22.08Q33.18-20.82 34.92-18.18 36.66-15.54 36.66-12.12L36.66-12.12Q36.66-8.76 35.13-6 33.6-3.24 30.6-1.62 27.6 0 23.46 0L23.46 0 6.6 0ZM10.92-24.18L22.08-24.18Q25.98-24.18 28.02-25.95 30.06-27.72 30.06-30.9L30.06-30.9Q30.06-34.02 28.05-35.64 26.04-37.26 22.08-37.26L22.08-37.26 10.92-37.26 10.92-24.18ZM10.92-4.74L22.68-4.74Q26.52-4.74 28.71-6.81 30.9-8.88 30.9-12.12L30.9-12.12Q30.9-15.42 28.71-17.46 26.52-19.5 22.68-19.5L22.68-19.5 10.92-19.5 10.92-4.74ZM41.94 0Q41.46 0 41.1-0.36 40.74-0.72 40.74-1.2L40.74-1.2 40.86-1.86 55.74-40.68Q56.22-42 57.66-42L57.66-42 61.5-42Q62.94-42 63.42-40.68L63.42-40.68 78.3-1.86 78.42-1.2Q78.42-0.72 78.03-0.36 77.64 0 77.16 0L77.16 0 74.34 0Q73.74 0 73.35-0.33 72.96-0.66 72.84-1.02L72.84-1.02 69.48-9.66 49.62-9.66 46.32-1.02Q45.84 0 44.82 0L44.82 0 41.94 0ZM59.58-36.18L51.36-14.64 67.8-14.64 59.58-36.18ZM86.22 0Q85.62 0 85.26-0.39 84.9-0.78 84.9-1.38L84.9-1.38 84.9-40.56Q84.9-41.22 85.26-41.61 85.62-42 86.22-42L86.22-42 100.86-42Q107.7-42 111.57-38.79 115.44-35.58 115.44-29.46L115.44-29.46Q115.44-24.9 113.16-21.96 110.88-19.02 106.8-17.88L106.8-17.88 116.04-1.86Q116.22-1.5 116.22-1.2L116.22-1.2Q116.22-0.72 115.86-0.36 115.5 0 115.02 0L115.02 0 112.38 0Q111.48 0 110.97-0.42 110.46-0.84 110.04-1.62L110.04-1.62 101.22-16.98 90.54-16.98 90.54-1.38Q90.54-0.78 90.12-0.39 89.7 0 89.1 0L89.1 0 86.22 0ZM90.54-21.9L100.62-21.9Q109.68-21.9 109.68-29.52L109.68-29.52Q109.68-37.14 100.62-37.14L100.62-37.14 90.54-37.14 90.54-21.9ZM136.44 0.6Q129.9 0.6 125.61-2.61 121.32-5.82 121.08-12.06L121.08-12.06Q121.08-12.6 121.44-12.99 121.8-13.38 122.34-13.38L122.34-13.38 125.4-13.38Q126.72-13.38 126.9-12L126.9-12Q127.26-8.1 129.9-6.24 132.54-4.38 136.5-4.38L136.5-4.38Q141.06-4.38 143.55-7.38 146.04-10.38 146.04-15.48L146.04-15.48 146.04-36.96 124.62-36.96Q124.02-36.96 123.63-37.35 123.24-37.74 123.24-38.34L123.24-38.34 123.24-40.62Q123.24-41.22 123.63-41.61 124.02-42 124.62-42L124.62-42 150.36-42Q151.02-42 151.41-41.61 151.8-41.22 151.8-40.56L151.8-40.56 151.8-15.36Q151.8-10.56 149.97-6.96 148.14-3.36 144.66-1.38 141.18 0.6 136.44 0.6L136.44 0.6Z" transform="translate(-5.28000020980835, 42)"/>
            </g>
          </g>
        </g>
      </g>
    </g>
  </g>
</svg>