<svg data-v-6805eed4="" version="1.0" xmlns="http://www.w3.org/2000/svg"
  xmlns:xlink="http://www.w3.org/1999/xlink" width="100%" height="100%"
  viewBox="0 0 340.000000 250.000000" preserveAspectRatio="xMidYMid meet"
  color-interpolation-filters="sRGB" style="margin: auto;">
  <rect data-v-6805eed4="" x="0" y="0" width="100%" height="100%" fill="transparent" fill-opacity="1"
    class="background"></rect>
  <rect data-v-6805eed4="" x="0" y="0" width="100%" height="100%" fill="url(#watermark)"
    fill-opacity="1" class="watermarklayer"></rect>
  <g data-v-6805eed4="" fill="#333" class="iconlettersvg-g iconlettersvg"
    transform="translate(62.543975830078125,92.9220004407689)">
    <g>
      <g class="tp-name" transform="translate(0,0)">
        <g transform="scale(1)">
          <g transform="translate(0, 0)">
            <g class="name-imagesvg">
              <g>
                <rect fill="#333" fill-opacity="0" stroke-width="2" x="0" y="0"
                  width="49.9189357442263" height="50" class="image-rect"></rect>
                <svg x="0" y="0" width="49.9189357442263" height="50" filtersec="colorsb8042564436"
                  class="image-svg-svg primary" style="overflow: visible;">
                  <svg xmlns="http://www.w3.org/2000/svg" viewBox="0 0 24.63 24.68">
                    <title>资源 4</title>
                    <path
                      d="M24.63 8.28A8.28 8.28 0 0 0 16.35 0H0v8h8.09v.65H0v7.74h8.32v.65H0v7.63h16.35a8.05 8.05 0 0 0 7-12 8.23 8.23 0 0 0 1.28-4.39z"
                      fill="#edbb4d"></path>
                    <path
                      d="M15.89 24.65h.45V17h-8a8 8 0 0 0 7.55 7.65zm.45-16.07a7.92 7.92 0 0 0-.85.05 8 8 0 0 0-7.18 7.74h6.31a8.09 8.09 0 0 0 1.72.18 8.27 8.27 0 0 0 7-3.88 8.07 8.07 0 0 0-7-4.09z"
                      opacity=".5" fill="#fff"></path>
                    <path
                      d="M16.29 8H8a8.26 8.26 0 0 1 7.82-8h.44zm-.86.65H8a8.12 8.12 0 0 0 1.26 4 8 8 0 0 1 6.17-4.02zm.86 0h-.86a8 8 0 0 0-6.14 4 8.23 8.23 0 0 0 5.27 3.7h1.73z"
                      fill="#fff" opacity=".5"></path>
                  </svg>
                </svg> <!---->
              </g>
            </g>
          </g>
          <g transform="translate(49.9189357442263, 0)">
            <g class="name-imagesvg">
              <g>
                <rect fill="#333" fill-opacity="0" stroke-width="2" x="0" y="0"
                  width="62.13786371508071" height="50" class="image-rect"></rect>
                <svg x="0" y="0" width="62.13786371508071" height="50" filtersec="colorsb5810061373"
                  class="image-svg-svg primary" style="overflow: visible;">
                  <svg xmlns="http://www.w3.org/2000/svg" viewBox="0 0 34.83 28.02">
                    <title>资源 25</title>
                    <path fill="#e94337" d="M6.81 10.6L17.418-.008l17.416 17.416-10.606 10.606z"></path>
                    <path fill="#e94337" d="M17.418-.002l10.607 10.607L10.609 28.02.002 17.414z"></path>
                    <path fill="#fff" opacity=".2"
                      d="M6.814 10.605L17.42-.002l10.607 10.607L17.42 21.21z"></path>
                  </svg>
                </svg> <!---->
              </g>
            </g>
          </g>
          <g transform="translate(112.05679945930702, 0)">
            <g class="name-imagesvg">
              <g>
                <rect fill="#333" fill-opacity="0" stroke-width="2" x="0" y="0"
                  width="52.78116685599471" height="50" class="image-rect"></rect>
                <svg x="0" y="0" width="52.78116685599471" height="50" filtersec="colorsb6000420742"
                  class="image-svg-svg primary" style="overflow: visible;">
                  <svg xmlns="http://www.w3.org/2000/svg" viewBox="0 0 26.03 24.63">
                    <title>资源 6</title>
                    <path
                      d="M26 24a10.21 10.21 0 0 0-2.66-6.88A10.25 10.25 0 0 0 15.76 0H0v24.63h26V24z"
                      fill="#20a1d2"></path>
                    <path
                      d="M8.14 17.14A10.25 10.25 0 0 0 5.49 24v.61h10.27V13.75a10.23 10.23 0 0 0-7.62 3.39z"
                      fill="#fff" opacity=".3"></path>
                    <path
                      d="M15.76 13.75V0a10.27 10.27 0 1 0 7.66 17.14 10.23 10.23 0 0 0-7.66-3.39z"
                      fill="#fff" opacity=".3"></path>
                  </svg>
                </svg> <!---->
              </g>
            </g>
          </g>
          <g transform="translate(164.83796631530174, 0)">
            <g class="name-imagesvg">
              <g>
                <rect fill="#333" fill-opacity="0" stroke-width="2" x="0" y="0"
                  width="50.074075855855405" height="50" class="image-rect"></rect>
                <svg x="0" y="0" width="50.074075855855405" height="50"
                  filtersec="colorsb5456934389" class="image-svg-svg primary"
                  style="overflow: visible;">
                  <svg xmlns="http://www.w3.org/2000/svg" viewBox="0 0 27 27">
                    <title>资源 23</title>
                    <path
                      d="M27 13.49a11 11 0 0 0-.08-1.29V11.86A13.49 13.49 0 0 0 13.49 0a12.51 12.51 0 0 0-1.63.11v11.75H.11A12.39 12.39 0 0 0 0 13.49a13.49 13.49 0 0 0 11.86 13.39h.31a11.55 11.55 0 0 0 1.32.08A13.52 13.52 0 0 0 27 13.49z"
                      fill="#3eb372"></path>
                    <path
                      d="M23 23.05a13.43 13.43 0 0 0 4-9.55c0-.44 0-.87-.07-1.3v-.34h-15v15h.31c.44 0 .88.07 1.33.07A13.49 13.49 0 0 0 23 23.05z"
                      fill="#fff" opacity=".5"></path>
                  </svg>
                </svg> <!---->
              </g>
            </g>
          </g>
        </g>
      </g>
    </g>
    <g data-gra="path-slogan" fill-rule="" class="tp-slogan" fill="#333"
      transform="translate(80.04602432250977,56.00857162475586)"><!----> <!---->
      <g transform="scale(1, 1)">
        <g transform="scale(1)">
          <path
            d="M1.10-1.72L0.50-1.02C0.85-0.66 1.26-0.38 1.73-0.17C2.20 0.04 2.71 0.14 3.26 0.14C3.68 0.14 4.05 0.09 4.38-0.03C4.71-0.15 4.99-0.31 5.22-0.51C5.45-0.71 5.63-0.95 5.75-1.22C5.88-1.50 5.94-1.79 5.94-2.10C5.94-2.39 5.90-2.64 5.81-2.86C5.73-3.08 5.62-3.27 5.47-3.44C5.33-3.60 5.16-3.75 4.96-3.87C4.76-3.99 4.54-4.10 4.32-4.20L3.20-4.68C3.04-4.74 2.89-4.81 2.74-4.89C2.58-4.97 2.44-5.05 2.32-5.15C2.19-5.25 2.09-5.37 2.01-5.50C1.93-5.63 1.90-5.80 1.90-5.99C1.90-6.35 2.03-6.63 2.30-6.83C2.57-7.04 2.92-7.14 3.36-7.14C3.73-7.14 4.06-7.07 4.35-6.94C4.64-6.81 4.91-6.63 5.15-6.40L5.69-7.04C5.41-7.33 5.07-7.57 4.67-7.75C4.27-7.93 3.83-8.02 3.36-8.02C3-8.02 2.67-7.96 2.37-7.86C2.07-7.76 1.81-7.61 1.59-7.42C1.37-7.23 1.20-7.01 1.07-6.76C0.95-6.50 0.89-6.22 0.89-5.93C0.89-5.64 0.94-5.39 1.03-5.17C1.13-4.95 1.25-4.76 1.40-4.60C1.56-4.44 1.73-4.30 1.92-4.19C2.11-4.08 2.30-3.98 2.48-3.90L3.61-3.41C3.80-3.32 3.97-3.24 4.13-3.16C4.29-3.08 4.43-2.99 4.54-2.89C4.66-2.79 4.75-2.67 4.82-2.53C4.89-2.39 4.92-2.22 4.92-2.02C4.92-1.63 4.78-1.32 4.49-1.09C4.20-0.85 3.80-0.73 3.28-0.73C2.87-0.73 2.47-0.82 2.09-1.00C1.71-1.18 1.38-1.42 1.10-1.72ZM8.68-3.05L8.68 0L9.68 0L9.68-3.05L12.05-7.87L11.00-7.87L10.00-5.65C9.88-5.36 9.75-5.08 9.61-4.80C9.48-4.52 9.34-4.23 9.20-3.94L9.16-3.94C9.02-4.23 8.89-4.52 8.77-4.80C8.65-5.08 8.53-5.36 8.40-5.65L7.38-7.87L6.31-7.87ZM12.49-3.94C12.49-3.30 12.58-2.72 12.75-2.21C12.92-1.71 13.16-1.28 13.47-0.93C13.78-0.58 14.14-0.32 14.56-0.13C14.98 0.05 15.44 0.14 15.94 0.14C16.44 0.14 16.89 0.04 17.28-0.16C17.67-0.36 18.02-0.64 18.34-1.00L17.77-1.61C17.52-1.33 17.25-1.11 16.96-0.96C16.68-0.81 16.34-0.73 15.96-0.73C15.58-0.73 15.25-0.81 14.95-0.96C14.65-1.11 14.39-1.33 14.18-1.61C13.98-1.89 13.81-2.23 13.70-2.62C13.58-3.02 13.52-3.46 13.52-3.96C13.52-4.45 13.58-4.89 13.70-5.28C13.82-5.67 13.99-6.01 14.21-6.28C14.42-6.56 14.68-6.77 14.99-6.92C15.29-7.07 15.63-7.14 16.01-7.14C16.34-7.14 16.64-7.07 16.89-6.94C17.14-6.81 17.37-6.63 17.58-6.41L18.14-7.04C17.91-7.30 17.62-7.53 17.26-7.72C16.90-7.92 16.48-8.02 16.00-8.02C15.49-8.02 15.03-7.92 14.60-7.73C14.17-7.55 13.80-7.28 13.49-6.92C13.18-6.57 12.93-6.14 12.76-5.64C12.58-5.14 12.49-4.57 12.49-3.94ZM19.80-7.87L19.80 0L20.80 0L20.80-3.71L24.46-3.71L24.46 0L25.46 0L25.46-7.87L24.46-7.87L24.46-4.57L20.80-4.57L20.80-7.87ZM31.68-7.03L31.68 0L32.69 0L32.69-7.03L35.06-7.03L35.06-7.87L29.30-7.87L29.30-7.03ZM36.48-7.87L36.48 0L41.14 0L41.14-0.85L37.48-0.85L37.48-3.71L40.46-3.71L40.46-4.56L37.48-4.56L37.48-7.03L41.02-7.03L41.02-7.87ZM42.35-3.94C42.35-3.30 42.43-2.72 42.61-2.21C42.78-1.71 43.02-1.28 43.33-0.93C43.63-0.58 44.00-0.32 44.42-0.13C44.84 0.05 45.30 0.14 45.79 0.14C46.30 0.14 46.74 0.04 47.14-0.16C47.53-0.36 47.88-0.64 48.19-1.00L47.63-1.61C47.37-1.33 47.10-1.11 46.82-0.96C46.53-0.81 46.20-0.73 45.82-0.73C45.44-0.73 45.10-0.81 44.80-0.96C44.50-1.11 44.25-1.33 44.04-1.61C43.83-1.89 43.67-2.23 43.55-2.62C43.44-3.02 43.38-3.46 43.38-3.96C43.38-4.45 43.44-4.89 43.56-5.28C43.68-5.67 43.85-6.01 44.06-6.28C44.28-6.56 44.54-6.77 44.84-6.92C45.15-7.07 45.49-7.14 45.86-7.14C46.20-7.14 46.49-7.07 46.75-6.94C47.00-6.81 47.23-6.63 47.44-6.41L48-7.04C47.77-7.30 47.47-7.53 47.11-7.72C46.75-7.92 46.33-8.02 45.85-8.02C45.35-8.02 44.88-7.92 44.45-7.73C44.03-7.55 43.66-7.28 43.34-6.92C43.03-6.57 42.79-6.14 42.61-5.64C42.44-5.14 42.35-4.57 42.35-3.94ZM49.66-7.87L49.66 0L50.65 0L50.65-3.71L54.31-3.71L54.31 0L55.32 0L55.32-7.87L54.31-7.87L54.31-4.57L50.65-4.57L50.65-7.87Z"
            transform="translate(-0.504, 8.016)"></path>
        </g>
      </g>
    </g>
  </g>
  <defs v-gra="od"></defs>
</svg>